<svg xmlns="http://www.w3.org/2000/svg" xmlns:xlink="http://www.w3.org/1999/xlink" width="1080" zoomAndPan="magnify" viewBox="0 0 810 809.999993" height="1080" preserveAspectRatio="xMidYMid meet" version="1.0"><defs><clipPath id="8ac4cfd320"><path d="M 0 0 L 810 0 L 810 670.5 L 0 670.5 Z M 0 0 " clip-rule="nonzero"/></clipPath></defs><g clip-path="url(#8ac4cfd320)"><path fill="#29c5ff" d="M 767.890625 318.328125 L 767.890625 269.671875 L 796.355469 241.199219 L 796.355469 133.132812 L 805.035156 141.816406 L 805.035156 281.1875 Z M 629.199219 20.925781 L 650.660156 42.394531 L 599.375 42.394531 L 620.832031 20.925781 Z M 657.476562 42.375 L 636.015625 20.910156 L 741.585938 20.910156 L 791.53125 70.890625 L 791.53125 121.503906 C 765.171875 95.132812 738.828125 68.746094 712.449219 42.394531 L 657.476562 42.394531 Z M 760.753906 152.53125 C 756.097656 156.480469 750.230469 159.054688 743.765625 159.574219 L 743.765625 135.554688 Z M 721.96875 106.890625 C 727.1875 102.4375 733.964844 99.753906 741.363281 99.753906 C 749.632812 99.753906 757.121094 103.109375 762.523438 108.53125 C 767.945312 113.957031 771.300781 121.445312 771.300781 129.703125 C 771.300781 137.101562 768.617188 143.882812 764.164062 149.101562 Z M 743.785156 164.402344 C 751.050781 163.898438 757.71875 161.160156 763.082031 156.871094 L 763.082031 267.679688 L 743.785156 286.984375 Z M 741.363281 94.945312 C 732.625 94.945312 724.652344 98.171875 718.542969 103.480469 L 662.300781 47.203125 L 710.457031 47.203125 L 791.53125 128.304688 L 791.53125 239.203125 L 767.890625 262.851562 L 767.890625 152.828125 L 767.589844 152.53125 C 772.902344 146.417969 776.125 138.441406 776.125 129.703125 C 776.125 120.105469 772.230469 111.402344 765.933594 105.121094 C 759.65625 98.84375 750.957031 94.945312 741.363281 94.945312 Z M 718.5625 110.320312 L 732.8125 124.578125 L 738.960938 130.726562 L 738.960938 159.574219 C 731.65625 158.996094 725.082031 155.792969 720.199219 150.910156 C 714.777344 145.484375 711.425781 137.996094 711.425781 129.738281 C 711.425781 122.324219 714.109375 115.539062 718.5625 110.320312 Z M 696.953125 88.703125 L 203.398438 88.703125 C 202.335938 84.941406 198.890625 82.183594 194.792969 82.183594 C 189.855469 82.183594 185.851562 86.1875 185.851562 91.125 C 185.851562 96.066406 189.855469 100.070312 194.792969 100.070312 C 198.890625 100.070312 202.335938 97.3125 203.398438 93.550781 L 701.777344 93.550781 L 715.132812 106.910156 C 709.824219 113.023438 706.601562 121 706.601562 129.738281 C 706.601562 139.335938 710.496094 148.039062 716.789062 154.320312 C 722.546875 160.078125 730.316406 163.824219 738.960938 164.417969 L 738.960938 291.828125 L 718.710938 312.085938 L 718.710938 512.902344 C 714.945312 513.964844 712.191406 517.410156 712.191406 521.511719 C 712.191406 526.449219 716.195312 530.457031 721.132812 530.457031 C 726.066406 530.457031 730.074219 526.449219 730.074219 521.511719 C 730.074219 517.410156 727.316406 513.964844 723.554688 512.902344 L 723.554688 314.0625 L 763.066406 274.5 L 763.066406 323.15625 L 747.863281 338.363281 L 747.863281 652.910156 C 744.101562 653.96875 741.34375 657.417969 741.34375 661.519531 C 741.34375 666.457031 745.347656 670.460938 750.285156 670.460938 C 755.222656 670.460938 759.226562 666.457031 759.226562 661.519531 C 759.226562 657.417969 756.46875 653.96875 752.707031 652.910156 L 752.707031 340.355469 L 763.082031 329.976562 L 763.082031 516.664062 L 767.890625 516.664062 L 767.890625 325.148438 L 809.859375 283.164062 L 809.859375 139.800781 L 796.355469 126.308594 L 796.355469 68.894531 L 743.578125 16.101562 L 631.191406 16.101562 L 615.023438 -0.0742188 L 283.167969 -0.0742188 L 283.167969 4.753906 L 613.027344 4.753906 L 624.375 16.101562 L 618.820312 16.101562 L 613.308594 21.617188 L 119.605469 21.617188 C 118.542969 17.851562 115.097656 15.09375 111 15.09375 C 106.0625 15.09375 102.058594 19.101562 102.058594 24.039062 C 102.058594 28.976562 106.0625 32.984375 111 32.984375 C 115.097656 32.984375 118.542969 30.226562 119.605469 26.460938 L 608.5 26.460938 L 592.554688 42.414062 L 17.875 42.414062 C 16.8125 38.648438 13.367188 35.890625 9.269531 35.890625 C 4.332031 35.890625 0.324219 39.898438 0.324219 44.835938 C 0.324219 49.773438 4.332031 53.78125 9.269531 53.78125 C 13.367188 53.78125 16.8125 51.023438 17.875 47.257812 L 587.730469 47.257812 L 559.394531 75.605469 L 279.328125 75.605469 L 279.328125 80.429688 L 561.371094 80.429688 L 594.53125 47.257812 L 655.464844 47.257812 Z M 696.953125 88.703125 " fill-opacity="1" fill-rule="nonzero"/></g></svg>